<svg width="116" height="30" viewBox="0 0 116 30" fill="none" xmlns="http://www.w3.org/2000/svg">
<path fill-rule="evenodd" clip-rule="evenodd" d="M6.38307 2.95759C3.69138 5.03158 1.93731 8.04566 1.49386 11.3588L1.489 11.362L0.323899 17.8366C-0.0748976 19.3573 -0.105873 20.9476 0.233406 22.4819C0.572685 24.0164 1.27298 25.4534 2.27926 26.68C4.24813 28.8802 7.32692 29.9804 11.5157 29.9804C15.1834 30.1567 18.8069 29.1381 21.8133 27.0858C24.4843 25.0275 26.2353 22.0449 26.7009 18.7604L27.866 12.2858C28.2625 10.7543 28.2924 9.15475 27.9534 7.61028C27.6144 6.06582 26.9155 4.61773 25.9106 3.37765C23.9363 1.13732 20.8575 0.0171583 16.6742 0.0171583C13.0027 -0.14831 9.37991 0.886806 6.38307 2.95759ZM2.65136 12.4024C3.05992 9.23069 4.68864 6.34428 7.1904 4.3584C9.9766 2.38137 13.3431 1.3959 16.7533 1.55908C19.4358 1.39941 22.0913 2.17098 24.2724 3.74384C18.0828 1.67492 10.5718 3.94816 5.71966 9.90555C3.65744 12.4242 2.23252 15.4045 1.56596 18.5931L2.65136 12.4024ZM17.9669 11.4998C18.085 11.1007 18.1017 10.6784 18.0154 10.2712C17.929 9.86406 17.7423 9.48501 17.4724 9.16862C17.1287 8.87302 16.7294 8.64953 16.2982 8.51136C15.8667 8.37318 15.4122 8.32315 14.9612 8.36422C14.4827 8.2963 13.9956 8.32353 13.5277 8.4444C13.0597 8.56526 12.6201 8.77736 12.2341 9.06859C11.848 9.3598 11.523 9.72441 11.2777 10.1416C11.0323 10.5587 10.8715 11.0203 10.8043 11.4998L9.44596 19.1721C9.11626 21.2625 10.1332 22.3077 12.4966 22.3077C14.9114 22.3077 16.2837 21.2625 16.6134 19.1721L17.9669 11.4998ZM93.1114 8.33453L93.1365 8.19631L93.133 8.19547L93.3326 7.07925H98.822C99.1077 7.10211 99.3929 7.03005 99.6307 6.87493C99.8332 6.67557 99.9557 6.41284 99.9763 6.13386L100.42 3.72892C100.458 3.60616 100.47 3.47717 100.455 3.34978C100.44 3.22239 100.399 3.09925 100.333 2.98784C100.232 2.90683 100.116 2.84687 99.9897 2.81171C99.8639 2.77655 99.732 2.76695 99.6022 2.78352H89.9429C89.6606 2.75933 89.3785 2.83161 89.1454 2.98784C88.9495 3.1919 88.8321 3.45505 88.8127 3.73311L86.3761 17.0875C86.3012 17.3349 86.3291 17.6008 86.4538 17.8286C86.5519 17.9103 86.6668 17.9709 86.7909 18.0061C86.9151 18.0414 87.0455 18.0505 87.1736 18.0329H96.9884C97.2707 18.0571 97.5528 17.9849 97.786 17.8286C97.983 17.6248 98.1073 17.365 98.1402 17.0875L98.5835 14.6592C98.6273 14.5382 98.644 14.4094 98.6325 14.2817C98.621 14.1539 98.5817 14.03 98.517 13.9181C98.4162 13.8371 98.2993 13.7771 98.1735 13.742C98.0477 13.7068 97.9157 13.6972 97.786 13.7138H92.1376L92.3588 12.4904L92.3596 12.4858H94.6917C95.081 12.5095 95.47 12.4397 95.7912 12.2884C96.056 12.0905 96.2173 11.8388 96.2498 11.5722L96.8609 9.24814C96.9187 9.13087 96.9404 9.00678 96.9245 8.88358C96.9088 8.76038 96.8559 8.64071 96.7692 8.53198C96.6303 8.45369 96.4691 8.39575 96.2957 8.36177C96.1222 8.32779 95.9403 8.31851 95.7614 8.33453H93.1114ZM36.4171 13.7139L35.5843 18.0311H36.0939C37.9992 18.124 39.8836 17.6004 41.4667 16.5384C42.1567 16.0128 42.7352 15.3556 43.1686 14.605C43.602 13.8543 43.8815 13.0253 43.991 12.166L44.4863 9.39505C44.6968 8.57543 44.7189 7.71898 44.5512 6.88963C44.3835 6.06027 44.0301 5.27944 43.5175 4.60543C42.5124 3.38862 40.9336 2.78021 38.7811 2.78021H33.3353C33.061 2.75601 32.7869 2.82831 32.5604 2.9846C32.371 3.18763 32.257 3.44923 32.2372 3.72591L29.8699 17.0846C29.7972 17.332 29.8244 17.598 29.9454 17.8259C30.0407 17.9076 30.1523 17.9682 30.2729 18.0035C30.3935 18.0387 30.5203 18.0479 30.6447 18.0303H34.6021L36.6286 7.07563H37.7695C38.0507 7.03892 38.3366 7.06496 38.6065 7.15188C38.8763 7.23878 39.1235 7.3844 39.3301 7.57821C39.4719 7.80885 39.5635 8.06672 39.5988 8.33502C39.6341 8.60332 39.6124 8.87602 39.535 9.13538L39.1043 11.6483C39.0367 12.2428 38.7671 12.7961 38.3404 13.2164C37.8408 13.5829 37.2259 13.7582 36.6077 13.7106H36.4146L36.4171 13.7139ZM59.6199 2.7821C59.9607 2.7821 60.1534 2.87172 60.1979 3.05098C60.2091 3.17409 60.193 3.29808 60.1509 3.41475C60.1088 3.53143 60.0415 3.63813 59.9535 3.7278L53.3805 12.1461L52.4914 17.0882C52.4584 17.3658 52.3338 17.6257 52.1361 17.8295C51.9025 17.9861 51.6194 18.0584 51.3362 18.0339H48.136C48.0054 18.0504 47.8726 18.0405 47.7461 18.0048C47.6196 17.9692 47.5021 17.9086 47.4011 17.827C47.3363 17.7151 47.2968 17.5911 47.2852 17.4633C47.2737 17.3354 47.2905 17.2067 47.3344 17.0857L48.2235 12.1888L44.7572 3.72863C44.6991 3.62533 44.6668 3.51033 44.6629 3.39281C44.659 3.27529 44.6835 3.15851 44.7346 3.05182C44.8099 2.95264 44.9118 2.87518 45.0292 2.8278C45.1466 2.78042 45.2752 2.76491 45.401 2.78293H48.5337C48.9568 2.75883 49.3811 2.80241 49.7894 2.91193C49.9206 2.98551 50.0345 3.08463 50.1241 3.20301C50.2136 3.32139 50.2767 3.45645 50.3093 3.59964L51.6023 7.40169L54.4022 3.60048C54.5795 3.30491 54.8416 3.06543 55.157 2.91109C55.5697 2.8044 55.9972 2.76087 56.4239 2.7821H59.6199ZM58.9867 7.28963C59.0986 6.6011 59.3649 5.94498 59.7669 5.36786C60.1689 4.79075 60.6966 4.3068 61.3126 3.9504C62.8817 3.10617 64.6614 2.70322 66.4526 2.78663C67.7655 2.71718 69.0748 2.97762 70.2542 3.54287C71.1593 4.05931 71.8286 4.89107 72.1265 5.86958C72.1787 5.98284 72.2066 6.10525 72.2085 6.22934C72.2104 6.35344 72.1864 6.47661 72.1378 6.59137C71.9542 6.80149 71.7116 6.95507 71.4397 7.03335L68.7785 8.04335C68.5512 8.16162 68.2876 8.19594 68.0363 8.13998C67.8289 8.00828 67.6821 7.80345 67.6268 7.5686C67.435 7.02298 66.8515 6.75018 65.8763 6.75018C64.798 6.75018 64.2145 7.00226 64.1258 7.50642C64.1026 7.65709 64.1388 7.8107 64.2271 7.93655C64.3154 8.06241 64.4492 8.15126 64.6019 8.18535C65.2033 8.37325 65.8233 8.49969 66.4517 8.56263C70.3951 9.15138 72.0712 11.0257 71.4803 14.1857C70.9193 17.2163 68.3493 18.7316 63.7707 18.7316C62.2982 18.7726 60.8344 18.4965 59.4843 17.9232C58.9604 17.7223 58.4963 17.3974 58.1341 16.9778C57.772 16.5584 57.5234 16.0576 57.4107 15.5209C57.3414 15.2595 57.3769 14.9822 57.5101 14.7453C57.6985 14.5181 57.9599 14.359 58.2523 14.2933L60.9549 13.4101C61.2176 13.292 61.51 13.2508 61.7964 13.2917C62.0032 13.3421 62.1731 13.5253 62.3062 13.8412C62.528 14.3582 63.1927 14.6168 64.3003 14.6168C65.5411 14.6168 66.2057 14.3647 66.2945 13.8605C66.3179 13.724 66.2876 13.5838 66.2096 13.468C66.1317 13.3522 66.0118 13.2691 65.8737 13.2354C65.3499 13.0592 64.8087 12.9367 64.2589 12.8698C63.577 12.7695 62.9033 12.6218 62.2431 12.4279C61.6176 12.2196 61.0192 11.9414 60.4598 11.5985C59.8117 11.222 59.3272 10.6283 59.0973 9.92891C58.8392 9.07116 58.8013 8.16496 58.9867 7.28963ZM73.1128 7.28964C73.2247 6.60111 73.4911 5.94499 73.893 5.36787C74.295 4.79076 74.8227 4.30681 75.4386 3.95041C77.0076 3.10618 78.7872 2.70323 80.5783 2.78664C81.8912 2.71716 83.2003 2.9776 84.3797 3.54288C85.2847 4.05876 85.9543 4.88988 86.2528 5.8679C86.305 5.98117 86.3328 6.10358 86.3348 6.22767C86.3367 6.35176 86.3127 6.47494 86.264 6.58969C86.0791 6.80022 85.835 6.95357 85.5616 7.03083L82.9041 8.04336C82.6768 8.16162 82.4132 8.19595 82.1619 8.13999C81.9545 8.00829 81.8077 7.80346 81.7524 7.5686C81.5606 7.02299 80.9772 6.75018 80.002 6.75018C78.9238 6.75018 78.3404 7.00226 78.2517 7.50642C78.2285 7.65709 78.2647 7.8107 78.353 7.93656C78.4412 8.06242 78.575 8.15127 78.7277 8.18536C79.3291 8.37325 79.9491 8.4997 80.5774 8.56264C84.5206 9.15138 86.1966 11.0257 85.6057 14.1857C85.0447 17.2163 82.475 18.7316 77.8966 18.7316C76.424 18.7726 74.9605 18.4965 73.6105 17.9232C73.0866 17.7223 72.6224 17.3974 72.2603 16.9778C71.8983 16.5584 71.6496 16.0576 71.537 15.5209C71.4677 15.2595 71.5032 14.9822 71.6363 14.7453C71.8247 14.5181 72.0861 14.359 72.3784 14.2933L75.0809 13.4101C75.3437 13.292 75.636 13.2508 75.9224 13.2917C76.1292 13.3421 76.2991 13.5253 76.4322 13.8412C76.6539 14.3582 77.3186 14.6168 78.4262 14.6168C79.6668 14.6168 80.3315 14.3647 80.4202 13.8605C80.4436 13.724 80.4133 13.5838 80.3354 13.468C80.2574 13.3522 80.1375 13.2691 79.9994 13.2354C79.4757 13.0592 78.9345 12.9367 78.3847 12.8699C77.7029 12.7695 77.0292 12.6218 76.3691 12.4279C75.7436 12.2197 75.1452 11.9413 74.5859 11.5985C73.9378 11.2219 73.4534 10.6282 73.2234 9.92892C72.9653 9.07116 72.9274 8.16497 73.1128 7.28964ZM115.419 2.77915C115.759 2.77915 115.952 2.86879 115.997 3.04807C116.007 3.1712 115.992 3.2952 115.949 3.41189C115.908 3.52858 115.84 3.6353 115.753 3.72498L109.176 12.1452L108.287 17.0879C108.254 17.3656 108.129 17.6255 107.932 17.8293C107.698 17.986 107.414 18.0583 107.132 18.0337H103.933C103.802 18.0503 103.67 18.0407 103.544 18.0055C103.418 17.9703 103.3 17.9103 103.2 17.8293C103.135 17.7174 103.095 17.5934 103.084 17.4656C103.072 17.3377 103.089 17.209 103.133 17.0879L104.022 12.1904L100.556 3.72917C100.498 3.62585 100.465 3.51083 100.462 3.3933C100.457 3.27576 100.482 3.15897 100.534 3.05226C100.608 2.95307 100.71 2.8756 100.827 2.82822C100.945 2.78083 101.073 2.76532 101.2 2.78334H104.332C104.755 2.75923 105.179 2.80283 105.588 2.91236C105.719 2.98595 105.833 3.08508 105.922 3.20348C106.011 3.32187 106.075 3.45695 106.108 3.60015L107.399 7.39935L110.198 3.59764C110.376 3.30253 110.639 3.06362 110.954 2.90984C111.366 2.80321 111.794 2.75968 112.22 2.78083H115.419V2.77915ZM46.7393 27.7962C46.7393 29.3719 45.4112 30 43.8727 30C43.2197 30 42.5556 29.8457 41.9912 29.5923L42.2679 28.4132C42.8102 28.6887 43.585 28.854 44.2601 28.854C44.8467 28.854 45.3558 28.5895 45.3558 28.0827C45.3558 27.6835 44.9474 27.5189 44.4018 27.2991L44.4018 27.2991C44.2997 27.258 44.1929 27.2149 44.083 27.1681C43.4189 26.8705 42.7549 26.3857 42.7549 25.5482C42.7549 24.1267 43.9723 23.3333 45.3669 23.3333C46.1306 23.3333 46.85 23.5207 47.2263 23.7411L46.9607 24.8981C46.6397 24.6887 46.042 24.4683 45.389 24.4683C44.736 24.4683 44.1937 24.7438 44.1937 25.2176C44.1937 25.6364 44.5921 25.8237 45.2673 26.1322C45.9646 26.4518 46.7393 26.8705 46.7393 27.7962ZM31.4349 29.8788C33.0177 29.8788 34.213 29.1625 34.213 27.7851C34.213 26.9807 33.56 26.54 33.0841 26.4738V26.4518C33.7924 26.2314 34.3679 25.6805 34.3679 24.9201C34.3679 23.9174 33.6264 23.4546 32.2208 23.4546H30.1289L29 29.8788H31.4349ZM31.4571 26.0992H31.0918L31.3575 24.5675H31.7338C32.3978 24.5675 32.8295 24.6557 32.8295 25.1956C32.8295 25.8127 32.3314 26.0992 31.4571 26.0992ZM30.9147 27.124L30.627 28.7548H31.2025C32.0215 28.7548 32.741 28.5895 32.741 27.8292C32.741 27.2452 32.2761 27.124 31.3021 27.124H30.9147ZM37.8475 30C39.4413 30 40.7584 29.1736 41.1015 27.2562L41.7656 23.4546H40.3378L39.6737 27.1901C39.4745 28.3251 38.8879 28.854 38.0578 28.854C37.1834 28.854 36.7739 28.3802 36.9732 27.2783L37.6483 23.4546H36.2205L35.5011 27.5207C35.1912 29.2617 36.3644 30 37.8475 30ZM49.1232 29.8788L50.2521 23.4546H48.8243L47.6954 29.8788H49.1232ZM52.8352 25.8678L52.1158 29.8788H50.8208L51.9497 23.4546H53.1451L55.4804 27.3774H55.5247L56.2109 23.4546H57.5169L56.388 29.8788H55.1816L52.8684 25.8678H52.8352ZM62.214 29.8788L62.4242 28.6997H59.7015L59.9672 27.1791H62.1365L62.3357 26.0551H60.1664L60.421 24.6226H63.0994L63.2986 23.4546H59.2035L58.0746 29.8788H62.214ZM68.051 27.7962C68.051 29.3719 66.7229 30 65.1844 30C64.5314 30 63.8673 29.8457 63.3029 29.5923L63.5796 28.4132C64.1219 28.6887 64.8966 28.854 65.5718 28.854C66.1584 28.854 66.6675 28.5895 66.6675 28.0827C66.6675 27.6835 66.2591 27.5189 65.7135 27.2991L65.7133 27.299C65.6113 27.2579 65.5045 27.2149 65.3947 27.1681C64.7306 26.8705 64.0666 26.3857 64.0666 25.5482C64.0666 24.1267 65.284 23.3333 66.6786 23.3333C67.4423 23.3333 68.1617 23.5207 68.538 23.7411L68.2724 24.8981C67.9514 24.6887 67.3537 24.4683 66.7007 24.4683C66.0477 24.4683 65.5054 24.7438 65.5054 25.2176C65.5054 25.6364 65.9038 25.8237 66.579 26.1322C67.2762 26.4518 68.051 26.8705 68.051 27.7962ZM70.6341 30C72.1725 30 73.5007 29.3719 73.5007 27.7962C73.5007 26.8705 72.7259 26.4518 72.0286 26.1322C71.3535 25.8237 70.9551 25.6364 70.9551 25.2176C70.9551 24.7438 71.4974 24.4683 72.1504 24.4683C72.8034 24.4683 73.4011 24.6887 73.722 24.8981L73.9877 23.7411C73.6114 23.5207 72.8919 23.3333 72.1283 23.3333C70.7337 23.3333 69.5162 24.1267 69.5162 25.5482C69.5162 26.3857 70.1803 26.8705 70.8444 27.1681C70.9542 27.2149 71.061 27.2579 71.163 27.299L71.1632 27.2991C71.7088 27.5189 72.1172 27.6835 72.1172 28.0827C72.1172 28.5895 71.6081 28.854 71.0215 28.854C70.3463 28.854 69.5716 28.6887 69.0292 28.4132L68.7525 29.5923C69.317 29.8457 69.9811 30 70.6341 30ZM80.5262 24.6226L79.6076 29.8788H78.1688L79.0874 24.6226H77.0177L77.2169 23.4546H82.8173L82.6181 24.6226H80.5262ZM84.2161 29.8788L84.6035 27.6749H85.1348C85.2565 27.6749 85.3783 27.6749 85.5 27.6639L86.3633 29.8788H87.9239L86.7839 27.3554C87.6914 26.9477 88.2227 26.1763 88.2227 25.2066C88.2227 24.1157 87.3815 23.4546 86.1198 23.4546H83.9173L82.7884 29.8788H84.2161ZM84.7916 26.573H85.0019C85.9316 26.573 86.7064 26.3306 86.7064 25.416C86.7064 24.8099 86.3412 24.5675 85.4889 24.5675H85.1458L84.7916 26.573ZM89.6215 29.8788L90.507 28.1598H92.5324L92.6984 29.8788H94.2147L93.3071 23.4546H91.813L88.227 29.8788H89.6215ZM91.0714 27.0579H92.4217L92.2225 24.9091H92.1782L91.0714 27.0579ZM97.8714 29.8788L101.513 23.4546H99.9743L97.5061 28.2039H97.4619L96.8642 23.4546H95.2372L96.3219 29.8788H97.8714ZM105.679 28.6997L105.468 29.8788H101.329L102.458 23.4546H106.553L106.354 24.6226H103.675L103.421 26.0551H105.59L105.391 27.1791H103.221L102.956 28.6997H105.679ZM110.818 29.8788L111.029 28.6997H108.439L109.368 23.4546H107.941L106.812 29.8788H110.818Z" fill="white"/>
</svg>
